<svg width="359" height="359" viewBox="0 0 359 359" fill="none" xmlns="http://www.w3.org/2000/svg">
<path fill-rule="evenodd" clip-rule="evenodd" d="M89.3549 93.3814C89.333 93.6135 89.4361 93.8398 89.6257 93.9756V93.9756L156.1 141.575C157.354 142.473 157.162 144.394 155.754 145.026L138.664 152.698C138.015 152.989 137.26 152.914 136.681 152.499L68.9411 103.994C68.3623 103.579 68.0474 102.888 68.1144 102.179L70.5396 76.4992C70.6073 75.7825 71.0549 75.1575 71.7116 74.8627L88.8292 67.1784C90.2277 66.5506 91.7836 67.6649 91.6395 69.191L89.3549 93.3814ZM160.913 134.866C162.168 135.765 163.924 134.964 164.069 133.428L165.827 114.777C165.894 114.069 165.579 113.378 165 112.964L103.033 68.5914C101.779 67.6931 100.022 68.4936 99.8776 70.0298L98.1192 88.6803C98.0524 89.389 98.3673 90.0798 98.946 90.4942L160.913 134.866ZM311.727 133.146C312.438 133.138 313.101 133.508 313.466 134.119L326.825 156.459C327.191 157.07 327.204 157.829 326.86 158.453L317.806 174.853C317.06 176.203 315.13 176.237 314.338 174.912L302.175 154.571C301.809 153.961 301.147 153.59 300.436 153.598L220.005 154.506C218.472 154.523 217.491 152.881 218.231 151.539L227.3 135.112C227.648 134.481 228.309 134.087 229.029 134.079L311.727 133.146ZM229.939 182.963C229.228 182.971 228.566 182.6 228.201 181.99L218.507 165.78C217.715 164.455 218.658 162.771 220.201 162.754L295.838 161.905C296.549 161.897 297.212 162.268 297.577 162.879L307.27 179.089C308.062 180.413 307.119 182.098 305.576 182.115L229.939 182.963ZM191.665 216.819C192.371 216.675 192.945 216.163 193.168 215.478L208.591 168.076C208.811 167.399 208.655 166.657 208.181 166.126L195.611 152.03C194.583 150.878 192.694 151.274 192.216 152.742L170.977 217.983C170.503 219.44 171.776 220.868 173.278 220.562L191.665 216.819ZM162.198 152.567C162.421 151.882 162.995 151.37 163.701 151.226L182.089 147.483C183.59 147.177 184.864 148.604 184.389 150.062L163.15 215.303C162.673 216.77 160.783 217.167 159.756 216.015L147.185 201.919C146.712 201.388 146.556 200.645 146.776 199.969L162.198 152.567ZM294.983 193.938C295.002 192.834 294.105 191.938 293 191.938H212.65C211.545 191.938 210.656 192.834 210.595 193.937C210.317 198.952 208.997 203.862 206.71 208.35C204.12 213.433 200.364 217.831 195.748 221.184C191.133 224.537 185.79 226.751 180.155 227.643C174.521 228.536 168.755 228.082 163.329 226.319C157.903 224.556 152.972 221.534 148.938 217.5C144.904 213.466 141.882 208.535 140.119 203.109C138.356 197.684 137.903 191.918 138.795 186.283C139.583 181.308 141.401 176.56 144.124 172.34C144.723 171.411 144.53 170.163 143.636 169.514L78.6315 122.286C77.7379 121.636 76.4857 121.834 75.8513 122.738C65.3239 137.745 58.354 154.965 55.4836 173.088C52.5088 191.87 54.0214 211.089 59.8977 229.175C65.774 247.26 75.8472 263.698 89.2936 277.145C102.74 290.591 119.178 300.664 137.263 306.541C155.349 312.417 174.568 313.929 193.35 310.955C212.132 307.98 229.944 300.602 245.328 289.425C260.713 278.247 273.233 263.588 281.866 246.644C290.197 230.295 294.679 212.267 294.983 193.938Z" fill="#FF5F9E"/>
<path d="M186.34 65.695H200.965V72.355H186.34V65.695ZM186.97 78.115H203.44V85H178.15V53.5H202.855V60.385H186.97V78.115ZM208.384 85V53.5H223.279C226.759 53.5 229.819 54.145 232.459 55.435C235.099 56.725 237.154 58.54 238.624 60.88C240.124 63.22 240.874 66.01 240.874 69.25C240.874 72.46 240.124 75.25 238.624 77.62C237.154 79.96 235.099 81.775 232.459 83.065C229.819 84.355 226.759 85 223.279 85H208.384ZM217.294 77.89H222.919C224.719 77.89 226.279 77.56 227.599 76.9C228.949 76.21 229.999 75.22 230.749 73.93C231.499 72.61 231.874 71.05 231.874 69.25C231.874 67.42 231.499 65.86 230.749 64.57C229.999 63.28 228.949 62.305 227.599 61.645C226.279 60.955 224.719 60.61 222.919 60.61H217.294V77.89ZM261.312 85.63C258.822 85.63 256.512 85.24 254.382 84.46C252.252 83.65 250.407 82.51 248.847 81.04C247.317 79.57 246.117 77.845 245.247 75.865C244.377 73.855 243.942 71.65 243.942 69.25C243.942 66.85 244.377 64.66 245.247 62.68C246.117 60.67 247.332 58.93 248.892 57.46C250.452 55.99 252.297 54.865 254.427 54.085C256.587 53.275 258.942 52.87 261.492 52.87C264.462 52.87 267.117 53.365 269.457 54.355C271.797 55.345 273.732 56.77 275.262 58.63L269.592 63.76C268.512 62.59 267.342 61.72 266.082 61.15C264.852 60.55 263.472 60.25 261.942 60.25C260.592 60.25 259.362 60.46 258.252 60.88C257.142 61.3 256.197 61.915 255.417 62.725C254.637 63.505 254.022 64.45 253.572 65.56C253.152 66.64 252.942 67.87 252.942 69.25C252.942 70.57 253.152 71.785 253.572 72.895C254.022 74.005 254.637 74.965 255.417 75.775C256.197 76.555 257.127 77.17 258.207 77.62C259.317 78.04 260.532 78.25 261.852 78.25C263.172 78.25 264.462 78.04 265.722 77.62C266.982 77.17 268.257 76.42 269.547 75.37L274.542 81.625C272.742 82.915 270.657 83.905 268.287 84.595C265.917 85.285 263.592 85.63 261.312 85.63ZM266.667 80.455V68.575H274.542V81.625L266.667 80.455ZM288.381 65.695H303.006V72.355H288.381V65.695ZM289.011 78.115H305.481V85H280.191V53.5H304.896V60.385H289.011V78.115ZM186.43 106.315H200.965V113.2H186.43V106.315ZM187.06 124H178.15V92.5H202.855V99.385H187.06V124ZM207.022 124V92.5H215.932V116.935H230.962V124H207.022ZM249.889 124.63C247.369 124.63 245.044 124.225 242.914 123.415C240.784 122.605 238.924 121.465 237.334 119.995C235.774 118.495 234.559 116.755 233.689 114.775C232.819 112.795 232.384 110.62 232.384 108.25C232.384 105.88 232.819 103.705 233.689 101.725C234.559 99.745 235.774 98.02 237.334 96.55C238.924 95.05 240.784 93.895 242.914 93.085C245.044 92.275 247.369 91.87 249.889 91.87C252.439 91.87 254.764 92.275 256.864 93.085C258.994 93.895 260.839 95.05 262.399 96.55C263.959 98.02 265.174 99.745 266.044 101.725C266.944 103.705 267.394 105.88 267.394 108.25C267.394 110.62 266.944 112.81 266.044 114.82C265.174 116.8 263.959 118.525 262.399 119.995C260.839 121.465 258.994 122.605 256.864 123.415C254.764 124.225 252.439 124.63 249.889 124.63ZM249.889 117.25C251.089 117.25 252.199 117.04 253.219 116.62C254.269 116.2 255.169 115.6 255.919 114.82C256.699 114.01 257.299 113.05 257.719 111.94C258.169 110.83 258.394 109.6 258.394 108.25C258.394 106.87 258.169 105.64 257.719 104.56C257.299 103.45 256.699 102.505 255.919 101.725C255.169 100.915 254.269 100.3 253.219 99.88C252.199 99.46 251.089 99.25 249.889 99.25C248.689 99.25 247.564 99.46 246.514 99.88C245.494 100.3 244.594 100.915 243.814 101.725C243.064 102.505 242.464 103.45 242.014 104.56C241.594 105.64 241.384 106.87 241.384 108.25C241.384 109.6 241.594 110.83 242.014 111.94C242.464 113.05 243.064 114.01 243.814 114.82C244.594 115.6 245.494 116.2 246.514 116.62C247.564 117.04 248.689 117.25 249.889 117.25ZM278.791 124L268.576 92.5H277.756L286.351 119.77H281.716L290.761 92.5H298.951L307.501 119.77H303.046L311.911 92.5H320.416L310.201 124H300.661L293.371 100.825H295.936L288.331 124H278.791Z" fill="white"/>
</svg>
