<svg width="351" height="292" viewBox="0 0 351 292" fill="none" xmlns="http://www.w3.org/2000/svg">
<path fill-rule="evenodd" clip-rule="evenodd" d="M85.0948 0L63.9149 34.7707L127.892 139.914H163.005L99.0899 34.7707L120.207 0H85.0948ZM255.221 0H220.108L180.872 64.4979L198.429 93.3944L255.221 0ZM244.289 99.2689L283.525 34.771L265.968 5.87452L209.176 99.2689H244.289ZM191.307 105.143L173.751 134.04L113.397 34.771L130.953 5.87452L191.307 105.143ZM17.5562 111.076H95.9658L113.522 139.972H0L17.5562 111.076ZM0 151.721L17.5562 180.618H95.9658L113.522 151.721H0ZM127.892 151.721H163.004L102.651 250.99H67.5385L127.892 151.721ZM85.0315 291.635H127.329L191.244 186.492L173.687 157.596L109.773 262.739H67.4753L85.0315 291.635ZM220.108 291.636L180.872 227.138L198.429 198.241L255.221 291.636H220.108ZM265.968 285.761L283.525 256.865L244.289 192.367H209.176L265.968 285.761ZM202.054 180.618L184.497 151.721H305.204L322.761 180.618H202.054ZM311.765 139.914H312.327L333.444 174.684L351.001 145.788L329.883 111.017H202.054L184.497 139.914H311.765Z" fill="white"/>
</svg>
